# MagicaVoxel @ Ephtracy

# group
o 

# material
mtllib Enemy.mtl
usemtl palette

# normals
vn -1 0 0
vn 1 0 0
vn 0 0 1
vn 0 0 -1
vn 0 -1 0
vn 0 1 0

# texcoords
vt 0.802734 0.5
vt 0.892578 0.5
vt 0.978516 0.5

# verts
v -0.4 0 0.3
v -0.4 0 -0.3
v -0.4 0.2 0.3
v -0.4 0.2 -0.3
v -0.3 0.2 0.1
v -0.3 0.2 -0.3
v -0.3 0.3 -0.2
v -0.3 0.3 -0.3
v -0.3 0.4 0.1
v -0.3 0.4 -0.2
v 0.1 0.2 0.1
v 0.1 0.2 -0.3
v 0.1 0.3 -0.2
v 0.1 0.3 -0.3
v 0.1 0.4 0.1
v 0.1 0.4 -0.2
v 0.2 0 0.3
v 0.2 0 -0.3
v 0.2 0.2 0.3
v 0.2 0.2 -0.3
v -0.4 0 0.3
v -0.4 0.2 0.3
v -0.3 0 0.3
v -0.3 0.2 0.3
v 0.1 0 0.3
v 0.1 0.2 0.3
v 0.2 0 0.3
v 0.2 0.2 0.3
v -0.3 0.2 0.1
v -0.3 0.4 0.1
v 0.1 0.2 0.1
v 0.1 0.4 0.1
v -0.3 0.3 -0.2
v -0.3 0.4 -0.2
v 0.1 0.3 -0.2
v 0.1 0.4 -0.2
v -0.4 0 -0.3
v -0.4 0.2 -0.3
v -0.3 0 -0.3
v -0.3 0.2 -0.3
v -0.3 0.3 -0.3
v 0.1 0 -0.3
v 0.1 0.2 -0.3
v 0.1 0.3 -0.3
v 0.2 0 -0.3
v 0.2 0.2 -0.3
v -0.4 0 0.3
v -0.3 0 0.3
v 0.1 0 0.3
v 0.2 0 0.3
v -0.4 0 -0.3
v -0.3 0 -0.3
v 0.1 0 -0.3
v 0.2 0 -0.3
v -0.4 0.2 0.3
v -0.3 0.2 0.3
v 0.1 0.2 0.3
v 0.2 0.2 0.3
v -0.3 0.2 0.1
v 0.1 0.2 0.1
v -0.4 0.2 -0.3
v -0.3 0.2 -0.3
v 0.1 0.2 -0.3
v 0.2 0.2 -0.3
v -0.3 0.3 -0.2
v 0.1 0.3 -0.2
v -0.3 0.3 -0.3
v 0.1 0.3 -0.3
v -0.3 0.4 0.1
v 0.1 0.4 0.1
v -0.3 0.4 -0.2
v 0.1 0.4 -0.2

# faces
f 3/3/1 2/3/1 1/3/1
f 4/3/1 2/3/1 3/3/1
f 7/1/1 6/1/1 5/1/1
f 8/1/1 6/1/1 7/1/1
f 9/1/1 7/1/1 5/1/1
f 10/1/1 7/1/1 9/1/1
f 11/1/2 12/1/2 13/1/2
f 13/1/2 12/1/2 14/1/2
f 11/1/2 13/1/2 15/1/2
f 15/1/2 13/1/2 16/1/2
f 17/3/2 18/3/2 19/3/2
f 19/3/2 18/3/2 20/3/2
f 23/3/3 22/3/3 21/3/3
f 24/3/3 22/3/3 23/3/3
f 25/1/3 24/1/3 23/1/3
f 26/1/3 24/1/3 25/1/3
f 27/3/3 26/3/3 25/3/3
f 28/3/3 26/3/3 27/3/3
f 31/1/3 30/1/3 29/1/3
f 32/1/3 30/1/3 31/1/3
f 33/1/4 34/1/4 35/1/4
f 35/1/4 34/1/4 36/1/4
f 37/3/4 38/3/4 39/3/4
f 39/3/4 38/3/4 40/3/4
f 39/1/4 40/1/4 42/1/4
f 40/1/4 41/1/4 42/1/4
f 42/1/4 41/1/4 43/1/4
f 43/1/4 41/1/4 44/1/4
f 42/3/4 43/3/4 45/3/4
f 45/3/4 43/3/4 46/3/4
f 51/3/5 48/3/5 47/3/5
f 52/1/5 49/1/5 48/1/5
f 52/3/5 48/3/5 51/3/5
f 53/3/5 50/3/5 49/3/5
f 53/1/5 49/1/5 52/1/5
f 54/3/5 50/3/5 53/3/5
f 55/3/6 56/3/6 59/3/6
f 56/1/6 57/1/6 59/1/6
f 57/3/6 58/3/6 60/3/6
f 59/1/6 57/1/6 60/1/6
f 55/3/6 59/3/6 61/3/6
f 61/3/6 59/3/6 62/3/6
f 60/3/6 58/3/6 63/3/6
f 63/3/6 58/3/6 64/3/6
f 65/1/6 66/1/6 67/1/6
f 67/1/6 66/1/6 68/1/6
f 69/1/6 70/1/6 71/1/6
f 71/1/6 70/1/6 72/1/6
